<!DOCTYPE svg PUBLIC "-//W3C//DTD SVG 20010904//EN" "http://www.w3.org/TR/2001/REC-SVG-20010904/DTD/svg10.dtd">
<svg version="1.0" xmlns="http://www.w3.org/2000/svg" width="383px" height="355px" viewBox="0 0 3830 3550" preserveAspectRatio="xMidYMid meet">
<g id="layer101" fill="#81d6c3" stroke="none">
 <path d="M985 3459 c-72 -7 -115 -28 -149 -72 -40 -53 -58 -106 -57 -171 1 -74 29 -134 83 -180 82 -70 237 -74 311 -8 69 61 89 165 43 219 -23 27 -28 28 -143 33 -101 4 -115 7 -96 18 25 14 111 16 145 3 13 -5 33 -5 46 0 27 10 56 72 47 100 -15 47 -105 70 -230 58z m83 -291 c2 -9 -7 -22 -19 -29 -19 -9 -29 -8 -56 6 -52 28 -43 47 19 43 40 -2 54 -7 56 -20z"/>
 <path d="M317 3453 c-42 -11 -47 -48 -46 -315 1 -139 4 -264 8 -278 11 -39 66 -52 201 -48 163 6 223 37 279 143 54 102 2 238 -119 311 -8 5 -55 11 -105 14 l-90 5 -5 75 c-5 67 -7 76 -30 87 -25 13 -59 15 -93 6z m271 -359 c28 -20 29 -65 1 -90 -16 -14 -36 -19 -83 -19 l-61 0 -3 49 c-2 27 -1 55 2 62 8 20 115 19 144 -2z"/>
 <path d="M1424 3441 c-23 -10 -54 -35 -69 -55 -25 -33 -28 -46 -31 -127 -1 -50 -4 -92 -6 -93 -61 -28 -63 -30 -66 -88 -3 -57 -3 -57 36 -82 38 -24 40 -26 35 -69 -7 -59 18 -87 80 -87 66 0 85 19 89 88 l3 57 50 5 c46 5 52 8 68 42 32 65 -4 128 -72 128 -44 0 -51 10 -51 75 0 46 11 61 50 63 58 3 81 92 35 137 -30 31 -91 33 -151 6z"/>
 <path d="M1675 3436 l-26 -26 3 -280 c3 -252 5 -281 21 -297 16 -16 41 -18 214 -21 209 -3 247 3 257 41 11 41 6 85 -11 106 -17 19 -30 21 -163 23 l-145 3 0 30 0 30 100 3 c87 2 102 5 118 23 24 30 23 103 -3 129 -21 21 -24 22 -140 24 l-75 1 -5 97 c-6 111 -13 124 -77 134 -36 5 -45 3 -68 -20z"/>
 <path d="M2285 3447 c-90 -36 -95 -55 -95 -383 0 -231 1 -245 20 -264 29 -29 115 -28 130 1 7 13 12 103 13 247 l2 227 33 16 c44 20 52 34 52 91 0 37 -5 50 -22 62 -26 19 -90 20 -133 3z"/>
 <path d="M2583 3430 c-31 -18 -65 -49 -85 -77 -31 -45 -33 -54 -33 -128 1 -88 13 -121 66 -174 44 -44 83 -62 149 -68 101 -10 184 36 234 127 29 54 36 147 14 197 -60 138 -220 195 -345 123z m169 -157 c28 -25 24 -87 -7 -107 -72 -47 -149 31 -99 102 19 27 78 30 106 5z"/>
 <path d="M3111 3423 c-17 -21 -31 -43 -31 -50 0 -7 -16 -47 -35 -89 -19 -41 -35 -79 -35 -84 0 -4 -11 -32 -25 -62 -29 -63 -31 -88 -7 -117 20 -25 88 -44 112 -31 13 7 42 67 64 133 9 30 22 19 45 -40 28 -68 52 -93 93 -93 39 0 81 45 98 105 16 58 25 63 39 22 26 -71 56 -119 78 -128 26 -10 91 11 105 34 17 26 2 105 -33 169 -5 10 -27 64 -50 120 -43 110 -74 148 -118 148 -36 0 -63 -31 -89 -100 -11 -30 -23 -55 -27 -55 -4 0 -18 27 -32 59 -43 104 -98 125 -152 59z"/>
 <path d="M1839 2486 c-2 -2 -44 -9 -94 -15 -115 -14 -161 -27 -169 -48 -5 -12 104 -128 422 -447 450 -454 470 -477 494 -589 42 -196 -2 -357 -134 -489 -101 -102 -212 -148 -358 -148 -47 0 -107 6 -135 14 -125 35 -137 45 -590 497 -237 236 -436 429 -442 429 -14 0 -36 -47 -53 -110 -6 -25 -14 -128 -17 -230 -6 -194 3 -269 47 -415 40 -134 154 -324 264 -443 163 -174 418 -316 634 -354 95 -16 339 -21 406 -8 142 27 206 45 289 80 360 155 618 472 702 865 21 98 24 329 6 430 -44 236 -161 462 -325 628 -71 72 -169 151 -223 182 -15 8 -35 19 -43 25 -34 21 -141 70 -153 70 -7 0 -29 8 -49 19 -44 22 -68 27 -213 46 -103 14 -256 20 -266 11z"/>
 <path d="M1773 1706 c-144 -29 -239 -152 -238 -311 1 -49 7 -72 34 -123 35 -64 66 -90 133 -111 32 -11 46 -9 109 13 39 14 86 38 103 53 135 124 176 191 176 292 0 50 -5 72 -21 96 -30 43 -82 75 -148 91 -66 16 -68 16 -148 0z"/>
 <path d="M2212 1552 c-98 -53 -94 -180 8 -232 36 -18 46 -19 76 -10 115 38 137 161 42 234 -40 30 -79 33 -126 8z"/>
 <path d="M2064 1246 c-38 -17 -70 -60 -79 -106 -5 -29 -1 -42 23 -76 16 -22 46 -48 66 -58 34 -16 37 -16 86 5 58 25 80 57 80 119 0 48 -20 82 -65 110 -37 23 -67 25 -111 6z"/>
 <path d="M1790 1113 c-39 -12 -62 -29 -80 -59 -24 -38 -25 -72 -4 -116 21 -44 58 -70 108 -75 34 -4 48 0 83 26 35 26 43 37 49 77 14 97 -69 176 -156 147z"/>
 </g>
<g id="layer102" fill="#ffcd5e" stroke="none">
 <path d="M1839 2486 c-2 -2 -44 -9 -94 -15 -115 -14 -161 -27 -169 -48 -5 -12 104 -128 422 -447 450 -454 470 -477 494 -589 42 -196 -2 -357 -134 -489 -101 -102 -212 -148 -358 -148 -47 0 -107 6 -135 14 -125 35 -137 45 -590 497 -237 236 -436 429 -442 429 -14 0 -36 -47 -53 -110 -6 -25 -14 -128 -17 -230 -6 -194 3 -269 47 -415 40 -134 154 -324 264 -443 163 -174 418 -316 634 -354 95 -16 339 -21 406 -8 142 27 206 45 289 80 360 155 618 472 702 865 21 98 24 329 6 430 -44 236 -161 462 -325 628 -71 72 -169 151 -223 182 -15 8 -35 19 -43 25 -34 21 -141 70 -153 70 -7 0 -29 8 -49 19 -44 22 -68 27 -213 46 -103 14 -256 20 -266 11z"/>
 <path d="M1773 1706 c-144 -29 -239 -152 -238 -311 1 -49 7 -72 34 -123 35 -64 66 -90 133 -111 32 -11 46 -9 109 13 39 14 86 38 103 53 135 124 176 191 176 292 0 50 -5 72 -21 96 -30 43 -82 75 -148 91 -66 16 -68 16 -148 0z"/>
 <path d="M2212 1552 c-98 -53 -94 -180 8 -232 36 -18 46 -19 76 -10 115 38 137 161 42 234 -40 30 -79 33 -126 8z"/>
 <path d="M2064 1246 c-38 -17 -70 -60 -79 -106 -5 -29 -1 -42 23 -76 16 -22 46 -48 66 -58 34 -16 37 -16 86 5 58 25 80 57 80 119 0 48 -20 82 -65 110 -37 23 -67 25 -111 6z"/>
 <path d="M1790 1113 c-39 -12 -62 -29 -80 -59 -24 -38 -25 -72 -4 -116 21 -44 58 -70 108 -75 34 -4 48 0 83 26 35 26 43 37 49 77 14 97 -69 176 -156 147z"/>
 </g>

</svg>