<!DOCTYPE svg PUBLIC "-//W3C//DTD SVG 20010904//EN" "http://www.w3.org/TR/2001/REC-SVG-20010904/DTD/svg10.dtd">
<svg version="1.0" xmlns="http://www.w3.org/2000/svg" width="335px" height="69px" viewBox="0 0 3350 690" preserveAspectRatio="xMidYMid meet">
<g id="layer101" fill="#ffffff" stroke="none">
 <path d="M715 679 c-72 -7 -115 -28 -149 -72 -40 -53 -58 -106 -57 -171 1 -74 29 -134 83 -180 82 -70 237 -74 311 -8 69 61 89 165 43 219 -23 27 -28 28 -143 33 -101 4 -115 7 -96 18 25 14 111 16 145 3 13 -5 33 -5 46 0 27 10 56 72 47 100 -15 47 -105 70 -230 58z m83 -291 c2 -9 -7 -22 -19 -29 -19 -9 -29 -8 -56 6 -52 28 -43 47 19 43 40 -2 54 -7 56 -20z"/>
 <path d="M47 673 c-42 -11 -47 -48 -46 -315 1 -139 4 -264 8 -278 11 -39 66 -52 201 -48 163 6 223 37 279 143 54 102 2 238 -119 311 -8 5 -55 11 -105 14 l-90 5 -5 75 c-5 67 -7 76 -30 87 -25 13 -59 15 -93 6z m271 -359 c28 -20 29 -65 1 -90 -16 -14 -36 -19 -83 -19 l-61 0 -3 49 c-2 27 -1 55 2 62 8 20 115 19 144 -2z"/>
 <path d="M1154 661 c-23 -10 -54 -35 -69 -55 -25 -33 -28 -46 -31 -127 -1 -50 -4 -92 -6 -93 -61 -28 -63 -30 -66 -88 -3 -57 -3 -57 36 -82 38 -24 40 -26 35 -69 -7 -59 18 -87 80 -87 66 0 85 19 89 88 l3 57 50 5 c46 5 52 8 68 42 32 65 -4 128 -72 128 -44 0 -51 10 -51 75 0 46 11 61 50 63 58 3 81 92 35 137 -30 31 -91 33 -151 6z"/>
 <path d="M1405 656 l-26 -26 3 -280 c3 -252 5 -281 21 -297 16 -16 41 -18 214 -21 209 -3 247 3 257 41 11 41 6 85 -11 106 -17 19 -30 21 -163 23 l-145 3 0 30 0 30 100 3 c87 2 102 5 118 23 24 30 23 103 -3 129 -21 21 -24 22 -140 24 l-75 1 -5 97 c-6 111 -13 124 -77 134 -36 5 -45 3 -68 -20z"/>
 <path d="M2015 667 c-90 -36 -95 -55 -95 -383 0 -231 1 -245 20 -264 29 -29 115 -28 130 1 7 13 12 103 13 247 l2 227 33 16 c44 20 52 34 52 91 0 37 -5 50 -22 62 -26 19 -90 20 -133 3z"/>
 <path d="M2313 650 c-31 -18 -65 -49 -85 -77 -31 -45 -33 -54 -33 -128 1 -88 13 -121 66 -174 44 -44 83 -62 149 -68 101 -10 184 36 234 127 29 54 36 147 14 197 -60 138 -220 195 -345 123z m169 -157 c28 -25 24 -87 -7 -107 -72 -47 -149 31 -99 102 19 27 78 30 106 5z"/>
 <path d="M2841 643 c-17 -21 -31 -43 -31 -50 0 -7 -16 -47 -35 -89 -19 -41 -35 -79 -35 -84 0 -4 -11 -32 -25 -62 -29 -63 -31 -88 -7 -117 20 -25 88 -44 112 -31 13 7 42 67 64 133 9 30 22 19 45 -40 28 -68 52 -93 93 -93 39 0 81 45 98 105 16 58 25 63 39 22 26 -71 56 -119 78 -128 26 -10 91 11 105 34 17 26 2 105 -33 169 -5 10 -27 64 -50 120 -43 110 -74 148 -118 148 -36 0 -63 -31 -89 -100 -11 -30 -23 -55 -27 -55 -4 0 -18 27 -32 59 -43 104 -98 125 -152 59z"/>
 </g>

</svg>